<svg xmlns="http://www.w3.org/2000/svg" xmlns:xlink="http://www.w3.org/1999/xlink" width="150" height="150" viewBox="0 0 370 400"  preserveAspectRatio="xMidYMid meet" version="1.0"><defs><clipPath id="b4207aaf51"><path d="M 118.40625 112.5 L 256.40625 112.5 L 256.40625 262.5 L 118.40625 262.5 Z M 118.40625 112.5 " clip-rule="nonzero"/></clipPath></defs><g clip-path="url(#b4207aaf51)"><path fill="#002F6D" d="M 256.128906 181.246094 C 256.109375 143.300781 225.390625 112.578125 187.554688 112.683594 C 149.609375 112.578125 118.898438 143.300781 118.992188 181.246094 L 118.992188 262.683594 L 255.898438 262.683594 L 256.128906 181.246094 " fill-opacity="1" fill-rule="nonzero"/></g><path fill="#002F6D" d="M 139.230469 171.25 C 143.84375 148.824219 163.699219 131.945312 187.554688 131.960938 C 214.695312 131.945312 236.746094 153.996094 236.847656 181.246094 L 236.847656 247.914062 L 213.039062 247.914062 L 208.984375 241.960938 C 197.023438 250.832031 179.761719 252.617188 172.078125 252.675781 C 164.285156 252.617188 138.691406 247.855469 138.746094 215.0625 C 138.691406 192.472656 161.496094 185.757812 170.183594 183.628906 C 179.761719 181.191406 205.953125 178.214844 207.085938 166.960938 C 208.332031 155.59375 196.429688 151.429688 186.367188 151.484375 C 176.191406 151.429688 166.070312 160.355469 164.9375 171.015625 L 139.230469 171.25 " fill-opacity="1" fill-rule="nonzero"/><path fill="#ffffff" d="M 208.984375 191.253906 L 208.984375 206.246094 C 208.929688 220.476562 201.785156 228.808594 188.746094 230.054688 C 175.59375 231.191406 169.4375 226.402344 168.507812 214.578125 C 167.855469 207.382812 174.40625 199.644531 180.898438 199.101562 C 187.5 198.453125 202.382812 194.882812 208.984375 191.253906 " fill-opacity="1" fill-rule="nonzero"/></svg>