<svg width="80" height="80" viewBox="0 0 80 80" fill="none" xmlns="http://www.w3.org/2000/svg">
<path d="M41.6667 20L31.6667 35H38.3334V45L48.3334 30H41.6667V20Z" fill="white"/>
<path fill-rule="evenodd" clip-rule="evenodd" d="M63.1833 32.1216C62.6773 36.4138 60.952 40.4712 58.2117 43.8133C56.6083 45.7733 52.5333 51.3666 51.6667 55H28.3333C27.4667 51.3633 23.3867 45.7683 21.7833 43.8083C19.0443 40.4647 17.3207 36.4061 16.8167 32.1133C16.3199 27.8296 17.0675 23.4934 18.97 19.6233C20.8893 15.723 23.8747 12.4464 27.58 10.1733C31.3162 7.87582 35.6173 6.66176 40.0033 6.66664C44.4 6.66664 48.7067 7.88331 52.4267 10.1783C56.131 12.4523 59.1152 15.7294 61.0333 19.63C62.935 23.5009 63.6814 27.8377 63.1833 32.1216ZM49.305 51.6666H30.6933C29.9833 50.0283 29.035 48.3866 28.1517 46.9916C26.9889 45.1587 25.7247 43.392 24.365 41.7C22.0289 38.8493 20.5586 35.3888 20.1283 31.7283C19.7051 28.0803 20.3415 24.3875 21.9617 21.0916C23.6041 17.7561 26.1584 14.9545 29.3283 13.0116C32.5388 11.0379 36.2347 9.99519 40.0033 9.99997C43.7867 9.99997 47.4867 11.0483 50.6783 13.0166C53.8471 14.96 56.4002 17.7616 58.0417 21.0966C59.661 24.3933 60.2963 28.0867 59.8717 31.735C59.4399 35.3946 57.9685 38.8539 55.6317 41.7033C54.2697 43.3933 53.006 45.1601 51.8467 46.995C50.9633 48.39 50.015 50.0283 49.305 51.6666Z" fill="white"/>
<path d="M28.3333 59.9999C28.3333 59.5579 28.5088 59.134 28.8214 58.8214C29.134 58.5088 29.5579 58.3333 29.9999 58.3333H49.9999C50.4419 58.3333 50.8659 58.5088 51.1784 58.8214C51.491 59.134 51.6666 59.5579 51.6666 59.9999C51.6666 60.4419 51.491 60.8659 51.1784 61.1784C50.8659 61.491 50.4419 61.6666 49.9999 61.6666H29.9999C29.5579 61.6666 29.134 61.491 28.8214 61.1784C28.5088 60.8659 28.3333 60.4419 28.3333 59.9999Z" fill="white"/>
<path fill-rule="evenodd" clip-rule="evenodd" d="M28.3333 65H51.6666V70C51.6666 70.8841 51.3154 71.7319 50.6903 72.357C50.0652 72.9821 49.2173 73.3333 48.3333 73.3333H31.6666C30.7825 73.3333 29.9347 72.9821 29.3096 72.357C28.6844 71.7319 28.3333 70.8841 28.3333 70V65ZM31.6666 68.3333H48.3333V70H31.6666V68.3333Z" fill="white"/>
</svg>
