<svg width="70" height="70" viewBox="0 0 90 90" fill="none" xmlns="http://www.w3.org/2000/svg">
<path d="M63.75 18.75H71.25C72.2446 18.75 73.1984 19.1451 73.9017 19.8484C74.6049 20.5516 75 21.5054 75 22.5V26.25C75 27.2446 74.6049 28.1984 73.9017 28.9017C73.1984 29.6049 72.2446 30 71.25 30H67.5C66.5054 30 65.5516 30.3951 64.8483 31.0984C64.1451 31.8016 63.75 32.7554 63.75 33.75V37.5C63.75 38.4946 64.1451 39.4484 64.8483 40.1517C65.5516 40.8549 66.5054 41.25 67.5 41.25H75M15 45V67.5M15 52.5C15 50.5109 15.7902 48.6032 17.1967 47.1967C18.6032 45.7902 20.5109 45 22.5 45H24.375C26.8614 45 29.246 45.9877 31.0041 47.7459C32.7623 49.504 33.75 51.8886 33.75 54.375M33.75 54.375V67.5M33.75 54.375V58.125M33.75 54.375C33.75 51.8886 34.7377 49.504 36.4959 47.7459C38.254 45.9877 40.6386 45 43.125 45C45.6114 45 47.996 45.9877 49.7541 47.7459C51.5123 49.504 52.5 51.8886 52.5 54.375V67.5" stroke="white" stroke-width="7" stroke-linecap="round" stroke-linejoin="round"/>
</svg>
