<svg width="70" height="70" viewBox="0 0 80 60" fill="none" xmlns="http://www.w3.org/2000/svg">
<path d="M14.1688 56H0.0461667V5.99467H5.67817C7.18572 5.99467 9.46128 5.93778 12.5048 5.824C15.5484 5.68178 18.0515 5.61067 20.0142 5.61067C25.5324 5.61067 29.7137 7.07556 32.5582 10.0053C35.4026 12.9351 36.8248 17.3298 36.8248 23.1893C36.8248 26.7164 36.3555 29.9307 35.4168 32.832C34.5066 35.7049 33.2693 38.0658 31.7048 39.9147C30.1404 41.7636 28.3626 43.1858 26.3715 44.1813C24.3804 45.1769 22.2755 45.6747 20.0568 45.6747C19.7724 45.6747 19.4737 45.6747 19.1608 45.6747C18.8764 45.6747 18.6062 45.6747 18.3502 45.6747C18.1226 45.6462 17.8382 45.632 17.4968 45.632C17.1839 45.6036 16.9279 45.5893 16.7288 45.5893C16.5582 45.5609 16.3022 45.5467 15.9608 45.5467C15.6479 45.5182 15.4346 45.504 15.3208 45.504C15.2071 45.504 14.9937 45.4898 14.6808 45.4613C14.3679 45.4329 14.1973 45.4187 14.1688 45.4187V56ZM22.8302 21.312C22.8302 19.2071 22.2613 17.5004 21.1235 16.192C19.9857 14.8836 18.3502 14.2293 16.2168 14.2293H14.1688V36.416H15.7475C17.9946 36.416 19.7297 35.6622 20.9528 34.1547C22.2044 32.6471 22.8302 30.4711 22.8302 27.6267V21.312ZM62.3608 56C59.1751 56 56.3306 55.3316 53.8275 53.9947V56H39.9182V7.744L37.3582 6.208V2.24L51.0542 0.106667H53.8275V23.0613C54.2826 22.5493 54.7804 22.0658 55.3208 21.6107C55.8613 21.1556 56.5155 20.7147 57.2835 20.288C58.0515 19.8613 58.9191 19.52 59.8862 19.264C60.8817 19.008 61.9342 18.88 63.0435 18.88C67.7368 18.88 71.1786 20.4871 73.3688 23.7013C75.5875 26.9156 76.6968 31.3671 76.6968 37.056C76.6968 39.7298 76.3982 42.2044 75.8008 44.48C75.2035 46.7271 74.3217 48.7182 73.1555 50.4533C71.9893 52.1884 70.4817 53.5538 68.6328 54.5493C66.8124 55.5164 64.7217 56 62.3608 56ZM56.0888 50.0693C59.9004 50.0693 61.8062 47.1538 61.8062 41.3227V34.0693C61.8062 31.6231 61.3511 29.7458 60.4408 28.4373C59.5591 27.1004 58.4213 26.432 57.0275 26.432C55.9751 26.432 54.9084 26.816 53.8275 27.584V49.7707C54.2542 49.8844 54.6524 49.9698 55.0222 50.0267C55.3919 50.0551 55.7475 50.0693 56.0888 50.0693Z" fill="white"/>
</svg>
