<svg width="34" height="39" viewBox="0 0 34 34" fill="white" xmlns="http://www.w3.org/2000/svg">
<path fill-rule="evenodd" clip-rule="evenodd" d="M24.4796 33.2791C22.0796 33.1907 15.2779 32.2507 8.15457 25.1291C1.0329 18.0057 0.09457 11.2057 0.00457 8.80407C-0.128763 5.14407 2.67457 1.58907 5.9129 0.20074C6.30286 0.0323517 6.72991 -0.031759 7.15212 0.0146993C7.57434 0.0611576 7.97722 0.216589 8.32124 0.46574C10.9879 2.40907 12.8279 5.34907 14.4079 7.66074C14.7555 8.16862 14.9042 8.78665 14.8255 9.39707C14.7468 10.0075 14.4463 10.5676 13.9812 10.9707L10.7296 13.3857C10.5725 13.4992 10.4619 13.6658 10.4184 13.8546C10.3748 14.0434 10.4013 14.2416 10.4929 14.4124C11.2296 15.7507 12.5396 17.7441 14.0396 19.2441C15.5396 20.7441 17.6279 22.1407 19.0596 22.9607C19.2391 23.0615 19.4504 23.0897 19.65 23.0395C19.8496 22.9892 20.0224 22.8644 20.1329 22.6907L22.2496 19.4691C22.6387 18.9522 23.2128 18.6059 23.8515 18.5027C24.4903 18.3996 25.1442 18.5476 25.6762 18.9157C28.0212 20.5391 30.7579 22.3474 32.7612 24.9124C33.0306 25.2589 33.202 25.6714 33.2574 26.1068C33.3128 26.5422 33.2502 26.9845 33.0762 27.3874C31.6812 30.6424 28.1512 33.4141 24.4796 33.2791Z" fill="#FFDE59"/>
</svg>
