<svg width="80" height="80" viewBox="0 0 90 90" fill="none" xmlns="http://www.w3.org/2000/svg">
<path d="M66.2251 42C65.3626 40.875 64.3126 39.9 63.3376 38.925C60.8251 36.675 57.9751 35.0625 55.5751 32.7C49.9876 27.225 48.7501 18.1875 52.3126 11.25C48.7501 12.1125 45.6376 14.0625 42.9751 16.2C33.2626 24 29.4376 37.7625 34.0126 49.575C34.1626 49.95 34.3126 50.325 34.3126 50.8125C34.3126 51.6375 33.7501 52.3875 33.0001 52.6875C32.1376 53.0625 31.2376 52.8375 30.5251 52.2375C30.3122 52.0592 30.1342 51.8431 30.0001 51.6C25.7626 46.2375 25.0876 38.55 27.9376 32.4C21.6751 37.5 18.2626 46.125 18.7501 54.2625C18.9751 56.1375 19.2001 58.0125 19.8376 59.8875C20.3626 62.1375 21.3751 64.3875 22.5001 66.375C26.5501 72.8625 33.5626 77.5125 41.1001 78.45C49.1251 79.4625 57.7126 78 63.8626 72.45C70.7251 66.225 73.1251 56.25 69.6001 47.7L69.1126 46.725C68.3251 45 66.2251 42 66.2251 42ZM54.3751 65.625C53.3251 66.525 51.6001 67.5 50.2501 67.875C46.0501 69.375 41.8501 67.275 39.3751 64.8C43.8376 63.75 46.5001 60.45 47.2876 57.1125C47.9251 54.1125 46.7251 51.6375 46.2376 48.75C45.7876 45.975 45.8626 43.6125 46.8751 41.025C47.5876 42.45 48.3376 43.875 49.2376 45C52.1251 48.75 56.6626 50.4 57.6376 55.5C57.7876 56.025 57.8626 56.55 57.8626 57.1125C57.9751 60.1875 56.6251 63.5625 54.3751 65.625Z" fill="white"/>
</svg>
