<svg width="35" height="39" viewBox="0 0 35 39" fill="none" xmlns="http://www.w3.org/2000/svg">
<path d="M27.3333 14.0378V10.7778C27.3333 7.00616 27.3333 5.12117 26.0416 3.9495C24.7483 2.77783 22.6699 2.77783 18.5083 2.77783H11.1583C6.99659 2.77783 4.91825 2.77783 3.62492 3.9495C2.33159 5.12117 2.33325 7.00616 2.33325 10.7778V21.4445C2.33325 25.2162 2.33325 27.1012 3.62492 28.2728C4.91825 29.4445 6.99659 29.4445 11.1583 29.4445H18.5083M7.33325 9.4445H22.3333M7.33325 16.1112H8.99992M13.9999 16.1112H15.6666M20.6666 16.1112H22.3333M7.33325 22.7778H8.99992M13.9999 22.7778H15.6666M31.8433 24.4512C31.3866 23.2928 30.2099 21.9345 27.5333 21.9345C24.4233 21.9345 23.1133 23.3595 22.8483 24.1212C22.4333 25.1395 22.3949 27.3378 26.1633 27.4628C30.6633 27.6128 32.5466 28.2245 32.3133 30.6912C32.0816 33.1578 29.4883 33.5012 27.5333 33.6345C25.5249 33.5762 23.0416 33.1562 22.3333 31.0262M27.3233 19.4445V21.8378M27.3383 33.6262V36.1112" stroke="#FFDE59" stroke-width="4" stroke-linecap="round" stroke-linejoin="round"/>
</svg>
