<svg width="36" height="39" viewBox="0 0 36 36" fill="none" xmlns="http://www.w3.org/2000/svg">
<path d="M35.5 0.5V35.5H0.5V0.5H35.5ZM3 3V23H5.92969L8.05859 20.8711C8.30599 20.6237 8.59896 20.5 8.9375 20.5C9.27604 20.5 9.56901 20.6237 9.81641 20.8711L13.2734 24.3086L18.0391 5.8125C18.1042 5.53906 18.2474 5.31771 18.4688 5.14844C18.6901 4.97917 18.9505 4.88802 19.25 4.875C19.5495 4.875 19.8099 4.95964 20.0312 5.12891C20.2526 5.29818 20.3958 5.53255 20.4609 5.83203L22.4531 13.9766H25.5C25.7865 13.9766 26.0404 14.0612 26.2617 14.2305C26.4831 14.3997 26.6328 14.6276 26.7109 14.9141L28.1172 20.5H33V3H3ZM33 33V23H27.1406C26.8411 23 26.5807 22.9154 26.3594 22.7461C26.138 22.5768 25.9948 22.3424 25.9297 22.043L24.5234 16.4766H21.4766C21.1771 16.4766 20.9167 16.3919 20.6953 16.2227C20.474 16.0534 20.3307 15.819 20.2656 15.5195L19.2109 11.2617L15.1484 27.0625C15.0833 27.3359 14.9401 27.5573 14.7188 27.7266C14.4974 27.8958 14.237 27.987 13.9375 28C13.599 28 13.306 27.8763 13.0586 27.6289L8.9375 23.5078L7.31641 25.1289C7.06901 25.3763 6.77604 25.5 6.4375 25.5H3V33H33Z" fill="#FFDE59"/>
</svg>
