<svg width="70" height="70" viewBox="0 0 90 90" fill="none" xmlns="http://www.w3.org/2000/svg">
<path d="M40.5001 49.2328V49.5H36.0001C33.511 49.5 31.5001 51.5109 31.5001 54V66.375C31.5001 69.4828 28.9829 72 25.8751 72H18.0142C17.8032 72 17.5923 71.9859 17.3813 71.9719C17.2126 71.9859 17.0438 72 16.8751 72H14.6251C11.5173 72 9.0001 69.4828 9.0001 66.375V50.625C9.0001 50.4984 9.0001 50.3578 9.01416 50.2313V40.4297H4.51416C1.98291 40.4297 0.0141602 38.4609 0.0141602 35.9156C0.0141602 34.65 0.436035 33.525 1.42041 32.5406L37.4626 1.125C38.447 0.140625 39.572 0 40.5563 0C41.5407 0 42.6657 0.28125 43.5095 0.984375L62.9017 18.0141C61.172 17.8734 59.386 18.4359 58.0079 19.6594C53.0298 24.1031 48.7829 29.1797 45.7313 34.1156C42.7923 38.8828 40.5001 44.2828 40.5001 49.2328ZM67.5001 72C55.0688 72 45.0001 61.9313 45.0001 49.5C45.0001 38.7141 53.7892 29.1516 60.0751 24.2719C60.7782 23.7234 61.6079 23.4563 62.4376 23.4563C63.5485 23.4422 64.6876 23.8922 65.5313 24.75L72.0001 31.2188L73.5892 29.6297C75.2345 27.9844 77.8923 27.8438 79.5376 29.4891C87.8204 37.6875 90.0001 45.0281 90.0001 49.5C90.0001 61.9313 79.9314 72 67.5001 72ZM76.5001 56.2781C76.5001 51.1453 71.297 46.0125 68.7938 43.8469C68.0345 43.1859 66.9517 43.1859 66.1923 43.8469C63.7032 45.9984 58.5001 51.1313 58.5001 56.2781C58.5001 61.2422 62.536 65.2781 67.5001 65.2781C72.4642 65.2781 76.5001 61.2422 76.5001 56.2781Z" fill="white"/>
</svg>
